<svg id="logo_text" data-name="logo text" xmlns="http://www.w3.org/2000/svg" viewBox="0 0 330.43 330.43"><defs><style>.cls-1{fill:#c2525c;}</style></defs><path class="cls-1" d="M293.54,235c-4.21,6.56-8.4,13.27-11.42,20.31-1.92,4.49-5.3,16.25-3.52,21.76,1.11,2.21,2.66,3.6,4.41,4q4.85-4.92,9.26-10.23c.16-.91.3-1.89.43-3C294.63,257.22,294.44,246.12,293.54,235Z"/><path class="cls-1" d="M309.94,209.23c.91,10.2,2,20.38,2.71,30.61a164.31,164.31,0,0,0,17.23-61.2Q319.76,193.82,309.94,209.23Z"/><path class="cls-1" d="M276.24,247.15c5.11-8.65,10.46-17.15,16-25.56-.9-7.85-1.88-15.63-2.47-23.17-2.27,4.64-4.65,9.16-7.1,13.42-4.23,7.37-11.37,18.45-21.39,15.81-11.91-3.13-12.38-16.44-12.41-26.43,0-1.07,0-2.14,0-3.22-3.93,8.15-8,16.22-12.27,24.1-4.46,8.26-11,13-20.61,9.85a18.59,18.59,0,0,1-10.76-8.68,68,68,0,0,1-6.08,11.87c-6.73,10.24-22.45,12.8-29.36.67-7.86-13.76,4.46-45.28,10-58.08,3.76-8.63,16.31-36.75,29-32.82,9.9,3.08-2.39,20.45-4.39,25.37-4.08,10.09-8.07,20.27-11.14,30.72-.85,2.89-4.18,12.85-5.83,21.17,6.1-7.68,10.42-18.9,13.35-25.57q1-2.41,2.07-4.87c2.33-13.44,7.07-26.8,9.85-34.3l.13,0c1.23-2.91,7.35-.48,7.6,2.43.61,7-.83,56.91,1.59,58,5,2.27,27.82-42.51,30.59-47.94l0-.06a64.68,64.68,0,0,1,8.08-17.64c2.26-3.39,10.39-1,10.19,3.27-.55,11.95-2.91,23.6-3.9,35.49-.24,3-2.06,18-1.52,25.41,10.5-6.46,17.38-19.9,22.91-33.08-1.11-14.54-1-31.35,9.47-38.94,2.74-2,7.2-.09,8.55,2.78,6.68,14.27,1.58,33.31,2.53,49,0,.22,0,.45.05.67q10.44-14.76,21.39-29.12c0-.86,0-1.72,0-2.59a165.23,165.23,0,0,0-309-81.4,227.14,227.14,0,0,0-4.48,42.68c-.06,6.14-2,21.18,1.44,26.37,6.55,10,11.78.77,14.42-5.77,5.32-13.18,8.46-28.2,12.49-41.85C49.56,90.79,55.16,76.78,58,62c.7-3.62,9.09-.41,9,2.88-1.28,31.9-.48,64,.26,95.87.39,16.52,1,33,1.62,49.51.53,13.3,3,27.47-.64,40.34-1.78,6.29-13.82.59-15.14-3.52C44.56,220.54,49.93,184.6,51,157c0-.31,0-.61,0-.92C46.59,167,39.26,176,25.39,174.22s-21.5-9.56-25-20.14C.14,157.76,0,161.47,0,165.21A165.21,165.21,0,0,0,273.73,289.79C263.45,279.29,268.74,259.85,276.24,247.15ZM166,237.26c-1.39,8.06-4.3,20.59-12.9,24.17-8.06,3.36-18.67-1.46-22.71-8.76a32.42,32.42,0,0,1-2.08-4.68c-6.82,15.72-17.54,27.53-33.52,18.87-26.33-14.28-14-62.49-2.63-82.47,4.41-7.77,23.23.66,19.08,7.94-9.88,17.3-14.2,37-10,56.74,1.52,7.18.67,7.48,6.56,4.38,4.69-2.48,8.13-9.53,10.36-14.06a90.55,90.55,0,0,0,8.13-28.3c.18-1.61.36-3.17.55-4.66.57-5.82,10.84-1.79,11.36,2.61,1.33,11.23,4,22.07,5.72,33.21.11.71,1.9,4.75,1.06,6.1,2.12-1.62,4.95-7.46,5.68-8.95,7.16-14.67,4.89-31.46-2.11-45.63-2.67-5.39,8.91-3.47,10.93.52A68,68,0,0,1,166,237.26Zm-17.53-82a134.62,134.62,0,0,1-3-15c-5.86,10.47-14,19.65-24.52,14.95a16.2,16.2,0,0,1-5.72-4.18c-4.15,7.27-9.85,15.56-18.38,16.59-27.75,3.36-22.71-42.43-17.32-57.29,2.14-5.89,13.68-.92,14.92,3.47,3,10.78-1.89,25.39.69,36.77,5.88-5.06,11-15.27,13.39-19.8,1.29-2.44,2.51-4.9,3.66-7.4a114.62,114.62,0,0,1,8.24-23.13c2.29-4.77,11.73-.89,12.11,3.89l.13,0a181,181,0,0,0-2.52,34.79c.26,10.88.46,4,4.26-2.2,3.19-5.19,6.6-9.81,9.54-15-.49-21.47,3.45-44.07,14.5-59.21,2.54-3.49,9.34,1,9.88,4.12C170,76,169,85,167.57,94c3.18-9.7,8-25.69,16.91-27.94,10.57-2.65,14.65,6.59,15.66,18.74,1.54-2.71,3.12-5.4,4.82-8,4.23-6.43,8.71-16.72,17.08-17.5,2.22-.21,5.08.65,6.34,2.64,7.45,11.75,1.6,29.46-.41,42.23-.54,3.39-4.33,21-5,24.79.9-1.88,6.11-5.53,8.61-8.29,3.36-3.7,6-8.07,8.81-12.2,1.46-2.18,6.92-.17,5.91,2.46-4.8,12.5-16.21,38.16-33.27,27.33-9.28-5.89-6.71-15.44-5.21-25.36a172.34,172.34,0,0,1,4.28-20.6c1.64-5.86,6.74-15.43,8-23.17-5.65,6.12-11.71,19.21-13.92,23.28a97.87,97.87,0,0,0-6.84,15.28A165.26,165.26,0,0,1,196.08,127c-1.26,7.2-17.76,2.2-17.7-5,.08-10.49,1.9-20.66,4.22-30.85,4-17.71.58-5.71-3,2.84-8.64,20.88-14.55,41.21-12.45,63.86C168,166.7,150.08,161.4,148.47,155.26Z"/></svg>